<?xml version="1.0" encoding="UTF-8" standalone="no"?>
<!DOCTYPE svg PUBLIC "-//W3C//DTD SVG 1.1//EN"
 "http://www.w3.org/Graphics/SVG/1.1/DTD/svg11.dtd">
<!-- Generated by graphviz version 9.0.0 (0)
 -->
<!-- Title: G Pages: 1 -->
<svg width="279pt" height="412pt"
 viewBox="0.00 0.00 278.55 411.80" xmlns="http://www.w3.org/2000/svg" xmlns:xlink="http://www.w3.org/1999/xlink">
<g id="graph0" class="graph" transform="scale(1 1) rotate(0) translate(4 407.8)">
<title>G</title>
<polygon fill="white" stroke="none" points="-4,4 -4,-407.8 274.55,-407.8 274.55,4 -4,4"/>
<!-- node0000 -->
<g id="node1" class="node">
<title>node0000</title>
<ellipse fill="none" stroke="#2ca02c" cx="112.8" cy="-189.15" rx="46.8" ry="46.8"/>
<text text-anchor="middle" x="112.8" y="-186.03" font-family="Times,serif" font-size="10.00"><a href="">I1001["train"]</a></text>
</g>
<!-- node0001 -->
<g id="node2" class="node">
<title>node0001</title>
<ellipse fill="none" stroke="black" cx="112.8" cy="-357" rx="46.8" ry="46.8"/>
<text text-anchor="middle" x="112.8" y="-366.63" font-family="Times,serif" font-size="10.00"><a href="">I1002</a></text>
<text text-anchor="middle" x="112.8" y="-353.88" font-family="Times,serif" font-size="10.00"><a href="">["mode of</a></text>
<text text-anchor="middle" x="112.8" y="-341.13" font-family="Times,serif" font-size="10.00"><a href="">transport"]</a></text>
</g>
<!-- node0000&#45;&gt;node0001 -->
<g id="edge1" class="edge">
<title>node0000&#45;&gt;node0001</title>
<path fill="none" stroke="black" d="M112.8,-236.35C112.8,-255.59 112.8,-278.13 112.8,-298.43"/>
<polygon fill="black" stroke="black" points="109.3,-298.25 112.8,-308.25 116.3,-298.25 109.3,-298.25"/>
<text text-anchor="start" x="112.8" y="-282.7" font-family="Times,serif" font-size="10.00"><a href="">R4</a></text>
<text text-anchor="start" x="112.8" y="-269.95" font-family="Times,serif" font-size="10.00"><a href="">["is instance</a></text>
<text text-anchor="start" x="112.8" y="-257.2" font-family="Times,serif" font-size="10.00"><a href="">of"]</a></text>
</g>
<!-- node0002 -->
<g id="node3" class="node">
<title>node0002</title>
<ellipse fill="none" stroke="black" cx="46.8" cy="-46.8" rx="46.8" ry="46.8"/>
<text text-anchor="middle" x="46.8" y="-50.05" font-family="Times,serif" font-size="10.00"><a href="">I1003</a></text>
<text text-anchor="middle" x="46.8" y="-37.3" font-family="Times,serif" font-size="10.00"><a href="">["locomotive"]</a></text>
</g>
<!-- node0002&#45;&gt;node0000 -->
<g id="edge2" class="edge">
<title>node0002&#45;&gt;node0000</title>
<path fill="none" stroke="black" d="M41.85,-93.54C42.26,-103.99 43.97,-114.82 48.05,-124.35 52.48,-134.69 59.45,-144.21 67.22,-152.58"/>
<polygon fill="black" stroke="black" points="64.57,-154.87 74.11,-159.47 69.52,-149.92 64.57,-154.87"/>
<text text-anchor="start" x="48.8" y="-114.85" font-family="Times,serif" font-size="10.00"><a href="">R5["is part of"]</a></text>
</g>
<!-- node0003 -->
<g id="node4" class="node">
<title>node0003</title>
<ellipse fill="none" stroke="black" cx="178.8" cy="-46.8" rx="46.8" ry="46.8"/>
<text text-anchor="middle" x="178.8" y="-50.05" font-family="Times,serif" font-size="10.00"><a href="">I1004</a></text>
<text text-anchor="middle" x="178.8" y="-37.3" font-family="Times,serif" font-size="10.00"><a href="">["railroad car"]</a></text>
</g>
<!-- node0003&#45;&gt;node0000 -->
<g id="edge3" class="edge">
<title>node0003&#45;&gt;node0000</title>
<path fill="none" stroke="black" d="M168.49,-92.82C165.35,-103.4 161.47,-114.47 156.8,-124.35 154,-130.27 150.67,-136.25 147.12,-142.05"/>
<polygon fill="black" stroke="black" points="144.27,-140.01 141.8,-150.32 150.15,-143.8 144.27,-140.01"/>
<text text-anchor="start" x="161.8" y="-114.85" font-family="Times,serif" font-size="10.00"><a href="">R5["is part of"]</a></text>
</g>
</g>
</svg>
